<svg xmlns="http://www.w3.org/2000/svg" viewBox="0 0 1200 630" role="img" aria-labelledby="cover-title cover-description">
  <title id="cover-title">Divar Assist — fresh listings, straight to Telegram</title>
  <desc id="cover-description">Divar Assist in forest green and gold, with a warm cream villa illustration and free, monthly, and pay-as-you-go plans.</desc>
  <defs>
    <radialGradient id="cover-glow">
      <stop stop-color="#c9a227" stop-opacity=".18"/>
      <stop offset="1" stop-color="#c9a227" stop-opacity="0"/>
    </radialGradient>
    <linearGradient id="cover-sky" x1="0" y1="0" x2="0" y2="1">
      <stop stop-color="#e3e6d3"/>
      <stop offset="1" stop-color="#f3e7cd"/>
    </linearGradient>
    <linearGradient id="cover-wall" x1="0" y1="0" x2="0" y2="1">
      <stop stop-color="#fff8e8"/>
      <stop offset="1" stop-color="#e7dcc2"/>
    </linearGradient>
    <clipPath id="cover-scene">
      <rect x="748" y="174" width="372" height="320" rx="24"/>
    </clipPath>
  </defs>
  <path fill="#101a14" d="M0 0h1200v630H0z"/>
  <ellipse cx="1040" cy="100" rx="475" ry="360" fill="url(#cover-glow)"/>
  <path d="M80 548h1040" stroke="#2b3d2f"/>

  <rect x="80" y="82" width="49" height="49" rx="13" fill="#1b2b1f" stroke="#40523a"/>
  <path d="M93 116V96h19l7 7v15H93Zm19-20v7h7m-21 9 13-13m-7 0h7v7" fill="none" stroke="#e0c15c" stroke-width="2.3" stroke-linecap="round" stroke-linejoin="round"/>
  <g font-family="Arial, Helvetica, sans-serif">
    <text x="148" y="116" fill="#e0c15c" font-size="31" font-weight="700">Divar Assist</text>
    <text x="80" y="193" fill="#9fb09f" font-size="17" letter-spacing="3">DIVAR TO TELEGRAM</text>
    <text x="80" y="267" fill="#eee7d8" font-size="59" font-weight="700">Fresh listings.</text>
    <text x="80" y="336" fill="#eee7d8" font-size="59" font-weight="700">Straight to Telegram.</text>
    <text x="80" y="389" fill="#9fb09f" font-size="23">A simpler way to keep your channel up to date.</text>

    <rect x="80" y="436" width="84" height="37" rx="18.5" fill="#263725"/>
    <text x="122" y="460" text-anchor="middle" fill="#cbd5ba" font-size="13" font-weight="700" letter-spacing="1">FREE</text>
    <rect x="175" y="436" width="118" height="37" rx="18.5" fill="#c9a227"/>
    <text x="234" y="460" text-anchor="middle" fill="#172116" font-size="13" font-weight="700" letter-spacing="1">MONTHLY</text>
    <rect x="304" y="436" width="167" height="37" rx="18.5" fill="#263725"/>
    <text x="387.5" y="460" text-anchor="middle" fill="#cbd5ba" font-size="13" font-weight="700" letter-spacing="1">PAY AS YOU GO</text>
    <text x="80" y="582" fill="#9fb09f" font-size="17">City filters · Listing details · Photos · Telegram delivery</text>
  </g>

  <g clip-path="url(#cover-scene)">
    <path fill="url(#cover-sky)" d="M748 174h372v320H748z"/>
    <circle cx="1055" cy="227" r="30" fill="#e4c886" opacity=".65"/>
    <path d="M748 358c56-35 82-41 129-14 54-47 96-23 132-18 45-13 86 6 111 21v147H748Z" fill="#ced3af"/>
    <path d="M748 413c86-25 137-8 194 11s106-3 178-4v74H748Z" fill="#bfc8a0"/>

    <path d="M850 279h189v136H850Z" fill="url(#cover-wall)"/>
    <path d="m1039 279 14 11v125h-14Z" fill="#c9bea1"/>
    <rect x="843" y="273" width="205" height="10" rx="2" fill="#fff8e8"/>
    <path d="M812 328h171v88H812Z" fill="url(#cover-wall)"/>
    <rect x="805" y="321" width="185" height="10" rx="2" fill="#fff8e8"/>
    <path d="M912 416v-47a22 22 0 0 1 44 0v47Z" fill="#ccbfa0"/>
    <path d="M917 416v-46a17 17 0 0 1 34 0v46Z" fill="#48614f"/>
    <path d="M933 353v63" stroke="#70836a"/>
    <path d="M840 390v-30a16 16 0 0 1 32 0v30Z" fill="#8baba0"/>
    <path d="M856 345v45m-16-20h32" stroke="#eee6ce" stroke-width="2"/>
    <path d="M994 372v-42a17 17 0 0 1 34 0v42Z" fill="#8baba0"/>
    <path d="M1011 314v58m-17-34h34" stroke="#eee6ce" stroke-width="2"/>
    <path d="M807 416h251l11 9H797Z" fill="#d5cdb1"/>
    <path d="m917 433 42-1 5 8-45 2m1 10 48-1 5 9-50 2m3 11 51-1 10 11-58 2" fill="#ece4cc"/>

    <path d="M789 377v48" stroke="#8d9874" stroke-width="4"/>
    <path d="M773 387c-25-7-25-29-8-40 3-20 25-25 42-10 26 0 33 30 15 41-14 12-35 14-49 9Z" fill="#849b78"/>
    <path d="m1073 460-10-32 20 24-2-42 12 40 18-26-10 33Z" fill="#7d9270"/>
    <path d="M1071 460h30l-5 14h-20Z" fill="#bbae82"/>
  </g>
  <rect x="748" y="174" width="372" height="320" rx="24" fill="none" stroke="#5c6751"/>
</svg>
